<svg width="24" height="24" viewBox="0 0 24 24" fill="none" xmlns="http://www.w3.org/2000/svg">
<path d="M16.1222 15.1876H15.1033L14.7422 14.8394C16.2898 13.0338 17.0894 10.5704 16.6509 7.95233C16.0448 4.36694 13.0527 1.50379 9.44147 1.06529C3.986 0.394644 -0.605356 4.986 0.0652922 10.4415C0.503793 14.0527 3.36694 17.0448 6.95233 17.6509C9.57044 18.0894 12.0338 17.2898 13.8394 15.7422L14.1876 16.1033V17.1222L19.6817 22.6034C20.2105 23.1322 21.0617 23.1322 21.5905 22.6034L21.6034 22.5905C22.1322 22.0617 22.1322 21.2105 21.6034 20.6817L16.1222 15.1876ZM8.38391 15.1876C5.17254 15.1876 2.58022 12.5953 2.58022 9.38391C2.58022 6.17254 5.17254 3.58022 8.38391 3.58022C11.5953 3.58022 14.1876 6.17254 14.1876 9.38391C14.1876 12.5953 11.5953 15.1876 8.38391 15.1876Z" fill="black"/>
</svg>
